Coordinates
version=1
nRows=30
nColumns=33
inDegrees=yes

Units are S.I. units (second, meters, Newtons, ...)
Angles are in degrees.

endheader
time	ground_thorax_rot_x	ground_thorax_rot_y	ground_thorax_rot_z	ground_thorax_tx	ground_thorax_ty	ground_thorax_tz	clav_prot_r	clav_elev_r	scapula_abduction_r	scapula_elevation_r	scapula_upward_rot_r	scapula_winging_r	shoulder_elv_r	plane_of_elev_r	axial_rot_r	elbow_flexion_r	pro_sup_r	wrist_flex_r	wrist_dev_r	clav_prot_l	clav_elev_l	scapula_abduction_l	scapula_elevation_l	scapula_upward_rot_l	scapula_winging_l	shoulder_elv_l	plane_of_elev_l	axial_rot_l	elbow_flexion_l	pro_sup_l	wrist_flex_l	wrist_dev_l	
7.8400	31.114487	24.689099	32.945741	-89.528799	825.469668	-38.531146	11.905372	34.391300	24.528140	45.000000	-45.000000	-3685.179960	-2445.858439	23.414128	180.000000	1805.690718	-173.507882	16.206920	14.289548	-8.361613	-45.000000	-39.071479	45.000000	-45.000000	-1695.828983	-1361.792323	24.092015	22.509409	1789.581091	41.553074	13.615940	-18.819265	
7.8500	31.179752	24.488252	32.747131	-91.321567	827.514100	-38.652693	11.891953	34.349459	24.491321	45.000000	-45.000000	-3685.326195	-2445.774288	23.444701	180.000000	1805.679185	-173.639415	16.338704	14.243638	-8.237337	-45.000000	-39.199054	45.000000	-45.000000	-1695.736137	-1361.691040	24.128985	22.624595	1789.612916	41.535437	13.592746	-18.974280	
7.8600	31.247783	24.280973	32.548785	-93.065972	829.526317	-38.788880	11.870430	34.312834	24.468597	45.000000	-45.000000	-3685.471389	-2445.698884	23.473518	180.000000	1805.671824	-173.781091	16.459521	14.207300	-8.110310	-45.000000	-39.322134	45.000000	-45.000000	-1695.637382	-1361.597986	24.168734	22.731864	1789.644250	41.519080	13.570402	-19.133624	
7.8700	31.319696	24.066848	32.349940	-94.761817	831.497705	-38.942045	11.840573	34.282493	24.464388	45.000000	-45.000000	-3685.616416	-2445.636525	23.499341	180.000000	1805.668274	-173.932668	16.569887	14.181639	-7.987848	-45.000000	-39.433378	45.000000	-45.000000	-1695.533975	-1361.511316	24.209985	22.823878	1789.675063	41.496281	13.550082	-19.295024	
7.8800	31.393828	23.850620	32.152143	-96.408408	833.420691	-39.114254	11.805352	34.254659	24.469401	45.000000	-45.000000	-3685.757220	-2445.583539	23.522416	180.000000	1805.667006	-174.093915	16.668826	14.165748	-7.864582	-45.000000	-39.535668	45.000000	-45.000000	-1695.427041	-1361.430310	24.251708	22.896673	1789.702798	41.459804	13.531795	-19.452442	
7.8900	31.463839	23.641567	31.960999	-98.004310	835.288993	-39.306847	11.768692	34.223706	24.467132	45.000000	-45.000000	-3685.889543	-2445.534232	23.544276	180.000000	1805.662586	-174.265497	16.755543	14.157855	-7.735725	-45.000000	-39.632992	45.000000	-45.000000	-1695.316434	-1361.354700	24.293209	22.945826	1789.728231	41.402978	13.513940	-19.599537	
7.9000	31.527222	23.445748	31.780936	-99.547167	837.097774	-39.519955	11.735630	34.188774	24.450471	45.000000	-45.000000	-3686.012675	-2445.485327	23.564646	180.000000	1805.653165	-174.448800	16.829086	14.154924	-7.605952	-45.000000	-39.728903	45.000000	-45.000000	-1695.206913	-1361.280792	24.327168	22.970302	1789.752564	41.320869	13.494100	-19.732111	
7.9100	31.583315	23.263239	31.612628	-101.033596	838.843454	-39.752092	11.706017	34.150222	24.418198	45.000000	-45.000000	-3686.127224	-2445.436010	23.586002	180.000000	1805.635244	-174.646076	16.890576	14.156709	-7.473134	-45.000000	-39.824691	45.000000	-45.000000	-1695.095199	-1361.210448	24.355521	22.973409	1789.775958	41.211897	13.472184	-19.850495	
7.9200	31.634301	23.094163	31.455620	-102.459521	840.523641	-39.999976	11.681526	34.109824	24.373507	45.000000	-45.000000	-3686.234636	-2445.388053	23.607741	180.000000	1805.610230	-174.860590	16.939448	14.162313	-7.342653	-45.000000	-39.919495	45.000000	-45.000000	-1694.985716	-1361.142028	24.375399	22.955648	1789.798321	41.078081	13.447956	-19.956082	
7.9300	31.680351	22.936861	31.308265	-103.820507	842.136693	-40.258560	11.659018	34.068066	24.319288	45.000000	-45.000000	-3686.334344	-2445.342278	23.630822	180.000000	1805.578573	-175.095946	16.975597	14.172538	-7.208558	-45.000000	-40.015735	45.000000	-45.000000	-1694.874773	-1361.080186	24.392508	22.922998	1789.817973	40.925815	13.422568	-20.052327	
7.9400	31.727792	22.785473	31.164759	-105.112139	843.681163	-40.521422	11.636291	34.031664	24.270079	45.000000	-45.000000	-3686.431540	-2445.306218	23.654263	180.000000	1805.544798	-175.354256	16.999172	14.187907	-7.081204	-45.000000	-40.107812	45.000000	-45.000000	-1694.766865	-1361.025293	24.406937	22.880530	1789.834124	40.764164	13.397349	-20.146373	
7.9500	31.777599	22.638038	31.021592	-106.330712	845.155597	-40.781506	11.610675	33.998976	24.225987	45.000000	-45.000000	-3686.524411	-2445.279113	23.679786	180.000000	1805.508199	-175.636888	17.010514	14.209077	-6.952922	-45.000000	-40.197210	45.000000	-45.000000	-1694.657203	-1360.982428	24.424924	22.834242	1789.845124	40.604721	13.373358	-20.242003	
7.9600	31.834682	22.492091	30.871494	-107.473605	846.558225	-41.032052	11.585596	33.970414	24.186286	45.000000	-45.000000	-3686.615745	-2445.260728	23.710290	180.000000	1805.464733	-175.944462	17.010896	14.235243	-6.833222	-45.000000	-40.275496	45.000000	-45.000000	-1694.556617	-1360.949845	24.446133	22.781554	1789.852073	40.457802	13.350063	-20.342791	
7.9700	31.885455	22.360831	30.731969	-108.539636	847.886875	-41.267550	11.562058	33.943080	24.146419	45.000000	-45.000000	-3686.703424	-2445.249697	23.736871	180.000000	1805.415312	-176.277573	17.000982	14.261858	-6.718343	-45.000000	-40.356909	45.000000	-45.000000	-1694.457661	-1360.927587	24.467376	22.726301	1789.858161	40.331494	13.324201	-20.446179	
7.9800	31.931934	22.240888	30.604594	-109.528861	849.139013	-41.484546	11.539057	33.916247	24.110237	45.000000	-45.000000	-3686.786692	-2445.244862	23.758088	180.000000	1805.357928	-176.635717	16.983140	14.288715	-6.611861	-45.000000	-40.428285	45.000000	-45.000000	-1694.368277	-1360.908565	24.480863	22.661642	1789.865278	40.229799	13.293905	-20.552670	
7.9900	31.970353	22.137099	30.491919	-110.442573	850.312339	-41.682100	11.519163	33.888551	24.070491	45.000000	-45.000000	-3686.863776	-2445.244655	23.775944	180.000000	1805.293247	-177.014986	16.959638	14.314487	-6.512084	-45.000000	-40.500377	45.000000	-45.000000	-1694.279751	-1360.897768	24.488764	22.592084	1789.874325	40.153671	13.258217	-20.661297	
8.0000	32.004210	22.044785	30.393934	-111.282245	851.404676	-41.861643	11.499049	33.859657	24.035202	45.000000	-45.000000	-3686.933877	-2445.248951	23.786542	180.000000	1805.218920	-177.408849	16.936141	14.340104	-6.419503	-45.000000	-40.551762	45.000000	-45.000000	-1694.203238	-1360.882732	24.485168	22.510587	1789.883031	40.100895	13.213827	-20.768116	
8.0100	32.026239	21.969940	30.316234	-112.049399	852.414334	-42.026343	11.483353	33.829812	23.995410	45.000000	-45.000000	-3686.995379	-2445.256847	23.793694	180.000000	1805.140665	-177.807722	16.913953	14.363528	-6.336274	-45.000000	-40.606167	45.000000	-45.000000	-1694.122918	-1360.873331	24.473269	22.422165	1789.892937	40.067768	13.163473	-20.874287	
8.0200	32.045539	21.899172	30.249989	-112.744932	853.339954	-42.180132	11.465003	33.799927	23.962491	45.000000	-45.000000	-3687.048277	-2445.268254	23.796715	180.000000	1805.056331	-178.199924	16.901060	14.387627	-6.258228	-45.000000	-40.635711	45.000000	-45.000000	-1694.054542	-1360.860370	24.449474	22.319700	1789.902692	40.049330	13.100758	-20.975877	
8.0300	32.057106	21.836953	30.191508	-113.369909	854.181029	-42.326709	11.452336	33.772161	23.921464	45.000000	-45.000000	-3687.096302	-2445.282888	23.808007	180.000000	1804.970537	-178.571385	16.896592	14.410185	-6.194015	-45.000000	-40.673072	45.000000	-45.000000	-1693.978445	-1360.863193	24.427458	22.214008	1789.915094	40.042155	13.038166	-21.083557	
8.0400	32.065445	21.775383	30.142399	-113.925392	854.937422	-42.468659	11.435704	33.742910	23.886753	45.000000	-45.000000	-3687.135045	-2445.297637	23.813533	180.000000	1804.881701	-178.911127	16.908699	14.430980	-6.130892	-45.000000	-40.683502	45.000000	-45.000000	-1693.919280	-1360.861706	24.397204	22.093351	1789.928081	40.042733	12.957535	-21.179981	
8.0500	32.058639	21.725294	30.111052	-114.413484	855.609573	-42.606988	11.425319	33.717700	23.843506	45.000000	-45.000000	-3687.170336	-2445.315285	23.824769	180.000000	1804.798650	-179.209884	16.930260	14.444831	-6.085384	-45.000000	-40.713097	45.000000	-45.000000	-1693.847511	-1360.875962	24.369408	21.971284	1789.943425	40.050521	12.882877	-21.284507	
8.0600	32.049972	21.673220	30.090675	-114.836948	856.198113	-42.741132	11.407076	33.688700	23.808853	45.000000	-45.000000	-3687.192561	-2445.330247	23.824131	180.000000	1804.716001	-179.463216	16.970255	14.453656	-6.031977	-45.000000	-40.711732	45.000000	-45.000000	-1693.796151	-1360.883107	24.331382	21.833802	1789.960402	40.063107	12.782334	-21.370120	
8.0700	32.032780	21.630950	30.081978	-115.199129	856.703701	-42.869229	11.393014	33.664434	23.766524	45.000000	-45.000000	-3687.213477	-2445.349382	23.827598	180.000000	1804.638082	-179.666939	17.018415	14.454138	-5.993668	-45.000000	-40.718100	45.000000	-45.000000	-1693.734137	-1360.904052	24.301684	21.700046	1789.980309	40.082531	12.690015	-21.464671	
8.0800	32.015691	21.591524	30.082404	-115.503227	857.126603	-42.988673	11.372492	33.638613	23.729993	45.000000	-45.000000	-3687.223886	-2445.369074	23.817809	180.000000	1804.562105	-179.821451	17.082590	14.445615	-5.950922	-45.000000	-40.696689	45.000000	-45.000000	-1693.691645	-1360.918099	24.263923	21.560317	1790.000691	40.107001	12.573712	-21.544836	
8.0900	31.990528	21.565882	30.093816	-115.752101	857.466789	-43.096390	11.358344	33.619881	23.682833	45.000000	-45.000000	-3687.236470	-2445.394708	23.813318	180.000000	1804.491116	-179.927471	17.150580	14.425978	-5.929418	-45.000000	-40.691417	45.000000	-45.000000	-1693.637179	-1360.946517	24.234429	21.432284	1790.021968	40.138658	12.473453	-21.641026	
8.1000	31.969648	21.541235	30.104718	-115.948718	857.724055	-43.189830	11.340815	33.600781	23.636160	45.000000	-45.000000	-3687.241044	-2445.419178	23.802487	180.000000	1804.420400	-179.988755	17.232569	14.395917	-5.908090	-45.000000	-40.668448	45.000000	-45.000000	-1693.604041	-1360.974461	24.198527	21.303562	1790.045565	40.173963	12.348731	-21.728141	
8.1100	31.942208	21.528719	30.126056	-116.094514	857.898318	-43.265666	11.329417	33.588471	23.582754	45.000000	-45.000000	-3687.247914	-2445.446621	23.794850	180.000000	1804.356924	-180.010030	17.313720	14.356666	-5.906076	-45.000000	-40.659490	45.000000	-45.000000	-1693.565879	-1361.012095	24.167484	21.189800	1790.071200	40.214223	12.237478	-21.823546	
8.1200	31.918899	21.513014	30.148283	-116.195006	857.990213	-43.324369	11.313786	33.575356	23.531880	45.000000	-45.000000	-3687.242974	-2445.469735	23.784702	180.000000	1804.297489	-179.995107	17.403487	14.308203	-5.905254	-45.000000	-40.635793	45.000000	-45.000000	-1693.540673	-1361.050418	24.135926	21.072926	1790.092556	40.259983	12.109480	-21.912187	
8.1300	31.891542	21.503987	30.180673	-116.254018	858.001285	-43.365457	11.302482	33.566116	23.479916	45.000000	-45.000000	-3687.237014	-2445.492522	23.778961	180.000000	1804.244242	-179.944909	17.489269	14.256727	-5.917083	-45.000000	-40.619978	45.000000	-45.000000	-1693.514253	-1361.095119	24.105312	20.961053	1790.113733	40.317347	11.993091	-21.996667	
